<svg xmlns="http://www.w3.org/2000/svg" viewBox="0 0 360 96" width="360" height="96">
  <defs>
    <linearGradient id="g" x1="0" y1="0" x2="1" y2="1">
      <stop offset="0%" stop-color="#f4cf6b"/>
      <stop offset="50%" stop-color="#d4af37"/>
      <stop offset="100%" stop-color="#a47e1c"/>
    </linearGradient>
    <linearGradient id="gText" x1="0" y1="0" x2="0" y2="1">
      <stop offset="0%" stop-color="#f7d97a"/>
      <stop offset="100%" stop-color="#c79a2d"/>
    </linearGradient>
  </defs>
  <circle cx="48" cy="48" r="40" fill="url(#g)"/>
  <g fill="#1a1407" transform="translate(8 12)">
    <path d="M13 28 L18 17 L23 25 L32 12 L41 25 L46 17 L51 28 Z"/>
    <rect x="13" y="28" width="38" height="3.5"/>
    <path d="M22 40 L34 33 L34 53 L44 53 L44 57 L20 57 L20 53 L28 53 L28 41.5 L22 44 Z"/>
  </g>
  <g transform="translate(8 12)">
    <circle cx="18" cy="21" r="1.4" fill="#fff3c2"/>
    <circle cx="32" cy="17" r="2"   fill="#fff3c2"/>
    <circle cx="46" cy="21" r="1.4" fill="#fff3c2"/>
  </g>
  <g font-family="Manrope, -apple-system, system-ui, sans-serif" font-weight="900">
    <text x="108" y="54" font-size="38" fill="url(#gText)" letter-spacing="-1">JACKONE</text>
    <text x="108" y="78" font-size="15" fill="#9aa0b3" letter-spacing="4" font-weight="600">ONE SHOT, ONE JACKPOT</text>
  </g>
</svg>
