<svg xmlns="http://www.w3.org/2000/svg" viewBox="0 0 64 64" width="64" height="64">
  <defs>
    <linearGradient id="g" x1="0" y1="0" x2="1" y2="1">
      <stop offset="0%" stop-color="#f4cf6b"/>
      <stop offset="50%" stop-color="#d4af37"/>
      <stop offset="100%" stop-color="#a47e1c"/>
    </linearGradient>
    <radialGradient id="glow" cx="50%" cy="40%" r="55%">
      <stop offset="0%" stop-color="#fff3c2" stop-opacity=".28"/>
      <stop offset="100%" stop-color="#fff3c2" stop-opacity="0"/>
    </radialGradient>
  </defs>
  <rect width="64" height="64" rx="16" fill="#0e1018"/>
  <circle cx="32" cy="32" r="26" fill="url(#g)"/>
  <circle cx="32" cy="32" r="26" fill="url(#glow)"/>
  <g fill="#1a1407">
    <path d="M13 28 L18 17 L23 25 L32 12 L41 25 L46 17 L51 28 Z"/>
    <rect x="13" y="28" width="38" height="3.5"/>
    <path d="M22 40 L34 33 L34 53 L44 53 L44 57 L20 57 L20 53 L28 53 L28 41.5 L22 44 Z"/>
  </g>
  <circle cx="18" cy="21" r="1.4" fill="#fff3c2"/>
  <circle cx="32" cy="17" r="2"   fill="#fff3c2"/>
  <circle cx="46" cy="21" r="1.4" fill="#fff3c2"/>
</svg>
