<svg xmlns="http://www.w3.org/2000/svg" viewBox="0 0 64 64" width="64" height="64">
  <defs>
    <radialGradient id="gB" cx="50%" cy="32%" r="70%">
      <stop offset="0%"  stop-color="#fff3c2"/>
      <stop offset="30%" stop-color="#f4cf6b"/>
      <stop offset="70%" stop-color="#d4af37"/>
      <stop offset="100%" stop-color="#8c6b14"/>
    </radialGradient>
    <linearGradient id="gBRim" x1="0" y1="0" x2="0" y2="1">
      <stop offset="0%"   stop-color="#f4cf6b"/>
      <stop offset="100%" stop-color="#8c6b14"/>
    </linearGradient>
  </defs>
  <rect width="64" height="64" rx="14" fill="#0e1018"/>
  <circle cx="32" cy="32" r="29" fill="url(#gBRim)"/>
  <circle cx="32" cy="32" r="25" fill="url(#gB)"/>
  <g fill="#1a1407" opacity=".5">
    <circle cx="32" cy="6.5" r="0.9"/>
    <circle cx="50.5" cy="13.5" r="0.9"/>
    <circle cx="57.5" cy="32" r="0.9"/>
    <circle cx="50.5" cy="50.5" r="0.9"/>
    <circle cx="32" cy="57.5" r="0.9"/>
    <circle cx="13.5" cy="50.5" r="0.9"/>
    <circle cx="6.5" cy="32" r="0.9"/>
    <circle cx="13.5" cy="13.5" r="0.9"/>
  </g>
  <circle cx="32" cy="32" r="22" fill="none" stroke="#1a1407" stroke-width="0.6" opacity=".35" stroke-dasharray="0.6 2.4"/>
  <g fill="#1a1407">
    <path d="M23 22 L34 16 L34 42 L43 42 L43 46 L21 46 L21 42 L28 42 L28 24.5 L23 27 Z"/>
  </g>
  <text x="32" y="54" text-anchor="middle" font-family="Manrope, -apple-system, sans-serif"
        font-size="6" font-weight="900" fill="#1a1407" letter-spacing="2" opacity=".85">ONE</text>
</svg>
